<svg width="25" height="37" viewBox="0 0 25 37" fill="none" xmlns="http://www.w3.org/2000/svg">
<path d="M12.5 0C5.58929 0 0 5.7837 0 12.9348C0 22.6359 12.5 36.9565 12.5 36.9565C12.5 36.9565 25 22.6359 25 12.9348C25 5.7837 19.4107 0 12.5 0ZM3.57143 12.9348C3.57143 7.83478 7.57143 3.69565 12.5 3.69565C17.4286 3.69565 21.4286 7.83478 21.4286 12.9348C21.4286 18.2565 16.2857 26.2207 12.5 31.1913C8.78571 26.2576 3.57143 18.2011 3.57143 12.9348Z" fill="#0094FF"/>
<path d="M12.4999 17.3914C15.2013 17.3914 17.3913 15.2015 17.3913 12.5001C17.3913 9.79868 15.2013 7.60876 12.4999 7.60876C9.79855 7.60876 7.60864 9.79868 7.60864 12.5001C7.60864 15.2015 9.79855 17.3914 12.4999 17.3914Z" fill="#0094FF"/>
</svg>
