<svg width="28" height="28" viewBox="0 0 28 28" fill="none" xmlns="http://www.w3.org/2000/svg">
<path d="M14 10.1819C13.2971 10.1819 12.7273 10.7517 12.7273 11.4546V18.1588C11.9665 18.5989 11.4546 19.4215 11.4546 20.3637C11.4546 21.7696 12.5942 22.9092 14 22.9092C15.4059 22.9092 16.5455 21.7696 16.5455 20.3637C16.5455 19.4215 16.0336 18.5989 15.2728 18.1588V11.4546C15.2728 10.7517 14.703 10.1819 14 10.1819Z" fill="white"/>
<path d="M12.7273 6.36355C12.7273 5.66065 13.2971 5.09082 14 5.09082C14.7029 5.09082 15.2727 5.66065 15.2727 6.36355C15.2727 7.06645 14.7029 7.63627 14 7.63627C13.2971 7.63627 12.7273 7.06645 12.7273 6.36355Z" fill="white"/>
<path d="M19.0908 7.63647C18.3879 7.63647 17.8181 8.2063 17.8181 8.9092C17.8181 9.61212 18.3879 10.1819 19.0908 10.1819C19.7938 10.1819 20.3636 9.61212 20.3636 8.9092C20.3636 8.2063 19.7938 7.63647 19.0908 7.63647Z" fill="white"/>
<path d="M6.36355 15.2727C5.66065 15.2727 5.09082 14.7029 5.09082 14C5.09082 13.2971 5.66065 12.7273 6.36355 12.7273C7.06645 12.7273 7.63627 13.2971 7.63627 14C7.63627 14.7029 7.06645 15.2727 6.36355 15.2727Z" fill="white"/>
<path d="M7.63647 8.9092C7.63647 9.61212 8.2063 10.1819 8.9092 10.1819C9.6121 10.1819 10.1819 9.6121 10.1819 8.9092C10.1819 8.2063 9.6121 7.63647 8.9092 7.63647C8.2063 7.63647 7.63647 8.2063 7.63647 8.9092Z" fill="white"/>
<path d="M21.6363 15.2727C20.9333 15.2727 20.3635 14.7029 20.3635 14C20.3635 13.2971 20.9333 12.7273 21.6363 12.7273C22.3392 12.7273 22.909 13.2971 22.909 14C22.909 14.7029 22.3392 15.2727 21.6363 15.2727Z" fill="white"/>
<path fill-rule="evenodd" clip-rule="evenodd" d="M14 28C21.7319 28 28 21.7319 28 14C28 6.26802 21.7319 0 14 0C6.26802 0 0 6.26802 0 14C0 21.7319 6.26802 28 14 28ZM14 25.4459C7.67863 25.4459 2.55415 20.3214 2.55415 14C2.55415 7.67863 7.67863 2.55415 14 2.55415C20.3214 2.55415 25.4459 7.67863 25.4459 14C25.4459 20.3214 20.3214 25.4459 14 25.4459Z" fill="white"/>
</svg>
