<svg width="36" height="21" viewBox="0 0 36 21" fill="none" xmlns="http://www.w3.org/2000/svg">
<path d="M0 13.2094C0 13.6047 0.136135 13.9506 0.42353 14.2306C0.665547 14.5435 0.983194 14.6918 1.37647 14.6918H23.5966C24.0353 14.6918 24.3983 14.8565 24.7008 15.1859C25.0034 15.5153 25.1546 15.9271 25.1546 16.4047C25.1546 16.8824 25.0034 17.2776 24.7008 17.5906C24.3983 17.9035 24.0353 18.0682 23.5815 18.0682C23.1429 18.0682 22.7647 17.9035 22.4773 17.5906C22.2353 17.2941 21.9328 17.1624 21.5697 17.1624C21.1916 17.1624 20.8739 17.3106 20.6017 17.5906C20.3294 17.8706 20.1933 18.2165 20.1933 18.5953C20.1933 19.0071 20.3294 19.3529 20.6168 19.6329C21.4639 20.5388 22.4622 21 23.5815 21C24.7613 21 25.7748 20.5553 26.6218 19.6659C27.4689 18.7765 27.8773 17.7059 27.8773 16.4212C27.8773 15.1365 27.4538 14.0494 26.6067 13.1271C25.7597 12.2047 24.7462 11.7435 23.5815 11.7435H1.37647C0.99832 11.7435 0.680672 11.8918 0.408403 12.1718C0.136134 12.4518 0 12.7976 0 13.2094ZM0 7.80706C0 8.18588 0.136135 8.51529 0.42353 8.81176C0.680673 9.10824 0.99832 9.24 1.37647 9.24H31.6891C32.8689 9.24 33.8824 8.79529 34.7294 7.88941C35.5765 7 36 5.91294 36 4.64471C36 3.37647 35.5765 2.27294 34.7294 1.36706C33.8824 0.461176 32.8689 0 31.6891 0C30.5244 0 29.5412 0.444706 28.7395 1.31765C28.4672 1.58118 28.3311 1.94353 28.3311 2.42118C28.3311 2.84941 28.4672 3.19529 28.7244 3.45882C28.9815 3.72235 29.2992 3.85412 29.6773 3.85412C30.0403 3.85412 30.358 3.72235 30.6303 3.45882C30.9176 3.11294 31.2655 2.94824 31.6891 2.94824C32.1277 2.94824 32.4908 3.11294 32.7933 3.44235C33.0958 3.77176 33.2471 4.16706 33.2471 4.64471C33.2471 5.12235 33.0958 5.51765 32.7933 5.83059C32.4908 6.14353 32.1277 6.30823 31.6891 6.30823H1.37647C0.99832 6.30823 0.680672 6.45647 0.408403 6.73647C0.136134 7.04941 0 7.39529 0 7.80706Z" fill="white"/>
</svg>
